<?xml version="1.0" encoding="utf-8"?>
<!-- Generator: Adobe Illustrator 24.0.1, SVG Export Plug-In . SVG Version: 6.00 Build 0)  -->
<svg version="1.1" id="Layer_1" xmlns="http://www.w3.org/2000/svg" xmlns:xlink="http://www.w3.org/1999/xlink" x="0px" y="0px"
	 viewBox="0 0 170.08 170.08" style="enable-background:new 0 0 170.08 170.08;" xml:space="preserve">
<style type="text/css">
	.st0{fill:#020203;}
</style>
<path class="st0" d="M108,116.07H67.64c-2.76,0-5-2.24-5-5s2.24-5,5-5H98L86.79,94.86H46.43c-2.76,0-5-2.24-5-5s2.24-5,5-5h30.36
	L58.01,66.08c-3.93,1.32-8.45,0.43-11.58-2.7c-4.4-4.4-4.4-11.55,0-15.95s11.55-4.4,15.95,0c3.13,3.13,4.03,7.65,2.7,11.58
	l18.77,18.77V47.43c0-2.76,2.24-5,5-5s5,2.24,5,5v40.36L105.07,99V68.64c0-2.76,2.24-5,5-5c2.76,0,5,2.24,5,5V109l18.48,18.48
	c5.16-11.41,16.75-39.82,8.34-48.22c-10.61-10.61-31.82-31.82-42.43-42.43C88.86,26.22,25.22,26.22,25.22,26.22s0,63.64,10.61,74.25
	c10.61,10.61,31.82,31.82,42.43,42.43c8.41,8.41,36.81-3.18,48.22-8.34L108,116.07z"/>
</svg>
