<?xml version="1.0" encoding="utf-8"?>
<!-- Generator: Adobe Illustrator 24.0.1, SVG Export Plug-In . SVG Version: 6.00 Build 0)  -->
<svg version="1.1" id="Layer_1" xmlns="http://www.w3.org/2000/svg" xmlns:xlink="http://www.w3.org/1999/xlink" x="0px" y="0px"
	 viewBox="0 0 510.24 510.24" style="enable-background:new 0 0 510.24 510.24;" xml:space="preserve">
<style type="text/css">
	.st0{fill:#020203;}
</style>
<g>
	<path class="st0" d="M255.4,140.15h-40.36c-2.76,0-5-2.24-5-5s2.24-5,5-5h30.36l-11.21-11.21h-40.36c-2.76,0-5-2.24-5-5s2.24-5,5-5
		h30.36l-18.77-18.77c-3.93,1.32-8.45,0.43-11.58-2.7c-4.4-4.4-4.4-11.55,0-15.95s11.55-4.4,15.95,0c3.13,3.13,4.03,7.65,2.7,11.58
		l18.77,18.77V71.51c0-2.76,2.24-5,5-5s5,2.24,5,5v40.36l11.21,11.21V92.72c0-2.76,2.24-5,5-5c2.76,0,5,2.24,5,5v40.36l18.48,18.48
		c5.16-11.41,16.75-39.82,8.34-48.22c-10.61-10.61-31.82-31.82-42.43-42.43C236.26,50.3,172.62,50.3,172.62,50.3
		s0,63.64,10.61,74.25c10.61,10.61,31.82,31.82,42.43,42.43c8.41,8.41,36.81-3.18,48.22-8.34L255.4,140.15z"/>
	<g>
		<polygon class="st0" points="232.62,423.87 232.62,423.87 232.62,423.87 		"/>
		<path class="st0" d="M322.62,378.87c-15,0-45,0-60,0c-11.89,0-23.78,28.28-28.2,40h26.13l28.54-28.54c1.95-1.95,5.12-1.95,7.07,0
			c1.95,1.95,1.95,5.12,0,7.07l-21.46,21.46h15.86l28.54-28.54c1.95-1.95,5.12-1.95,7.07,0c1.95,1.95,1.95,5.12,0,7.07l-21.46,21.46
			h26.55c1.84-3.72,5.67-6.28,10.1-6.28c6.23,0,11.28,5.05,11.28,11.28s-5.05,11.28-11.28,11.28c-4.43,0-8.25-2.56-10.1-6.28h-26.55
			l21.46,21.46c1.95,1.95,1.95,5.12,0,7.07c-0.98,0.98-2.26,1.46-3.54,1.46s-2.56-0.49-3.54-1.46l-28.54-28.54h-15.86l21.46,21.46
			c1.95,1.95,1.95,5.12,0,7.07c-0.98,0.98-2.26,1.46-3.54,1.46s-2.56-0.49-3.54-1.46l-28.54-28.54h-26.13
			c4.42,11.72,16.31,40,28.2,40c15,0,45,0,60,0s60-45,60-45S337.62,378.87,322.62,378.87z"/>
	</g>
	<g>
		<path class="st0" d="M465.12,41.37c-5.55,0-10.38,3.02-12.98,7.5h-47.56l-66.97,66.97v23.03h-23.03l-66.97,66.97v83.03h-15v-83.03
			l-66.97-66.97H37.62V296.9l66.97,66.97h30.53l15-15H110.8l-58.18-58.18V153.87h106.82l58.18,58.18v91.82h45v-91.82l58.18-58.18
			h31.82v-31.82l58.18-58.18h41.34c2.59,4.48,7.43,7.5,12.98,7.5c8.28,0,15-6.72,15-15C480.12,48.08,473.4,41.37,465.12,41.37z"/>
		<path class="st0" d="M172.62,362.05V230.69l-31.82-31.82H97.62v73.18l31.82,31.82h20.68v-15h-14.47l-23.03-23.03v-51.97h21.97
			l23.03,23.03v118.94l-23.03,23.03H58.09c-2.59-4.48-7.43-7.5-12.98-7.5c-8.28,0-15,6.72-15,15c0,8.28,6.72,15,15,15
			c5.55,0,10.38-3.02,12.98-7.5h82.7L172.62,362.05z"/>
		<rect x="367.62" y="198.87" class="st0" width="15" height="165"/>
		<polygon class="st0" points="397.62,363.87 412.62,363.87 412.62,213.87 457.62,213.87 457.62,198.87 397.62,198.87 		"/>
		<polygon class="st0" points="307.62,230.69 307.62,348.87 217.62,348.87 217.62,380.69 159.44,438.87 97.7,438.87 112.7,453.87 
			165.65,453.87 232.62,386.9 232.62,363.87 322.62,363.87 322.62,236.9 337.62,221.9 337.62,363.87 352.62,363.87 352.62,198.87 
			339.44,198.87 		"/>
		<polygon class="st0" points="277.62,218.26 277.62,318.87 202.62,318.87 202.62,218.26 153.22,168.87 67.62,168.87 67.62,284.47 
			117.01,333.87 150.12,333.87 150.12,318.87 123.22,318.87 82.62,278.26 82.62,183.87 147.01,183.87 187.62,224.47 187.62,311.37 
			187.62,318.87 187.62,333.87 187.62,339.94 187.62,368.26 147.01,408.87 67.54,408.87 82.54,423.87 153.22,423.87 202.62,374.47 
			202.62,333.87 292.62,333.87 292.62,224.47 333.22,183.87 352.62,183.87 352.62,168.87 327.01,168.87 		"/>
		<polygon class="st0" points="397.62,140.69 397.62,146.37 397.62,153.87 412.62,153.87 416.11,153.87 457.62,153.87 
			457.62,138.87 420.65,138.87 435.65,123.87 457.62,123.87 457.62,108.87 429.44,108.87 		"/>
		<polygon class="st0" points="367.62,128.26 367.62,183.87 457.62,183.87 457.62,168.87 382.62,168.87 382.62,134.47 423.22,93.87 
			457.62,93.87 457.62,78.87 417.01,78.87 		"/>
	</g>
</g>
</svg>
