<?xml version="1.0" encoding="utf-8"?>
<!-- Generator: Adobe Illustrator 24.0.1, SVG Export Plug-In . SVG Version: 6.00 Build 0)  -->
<svg version="1.1" id="Layer_1" xmlns="http://www.w3.org/2000/svg" xmlns:xlink="http://www.w3.org/1999/xlink" x="0px" y="0px"
	 viewBox="0 0 170.08 170.08" style="enable-background:new 0 0 170.08 170.08;" xml:space="preserve">
<style type="text/css">
	.st0{fill:#020203;}
</style>
<path class="st0" d="M80.04,133.01L51.5,104.48c-1.95-1.95-1.95-5.12,0-7.07s5.12-1.95,7.07,0l21.46,21.46l0-15.86L51.5,74.47
	c-1.95-1.95-1.95-5.12,0-7.07s5.12-1.95,7.07,0l21.46,21.46l0-26.55c-3.72-1.84-6.28-5.67-6.28-10.1c0-6.23,5.05-11.28,11.28-11.28
	c6.23,0,11.28,5.05,11.28,11.28c0,4.43-2.56,8.25-6.28,10.1l0,26.55L111.5,67.4c1.95-1.95,5.12-1.95,7.07,0s1.95,5.12,0,7.07
	l-28.54,28.54l0,15.86L111.5,97.4c1.95-1.95,5.12-1.95,7.07,0c1.95,1.95,1.95,5.12,0,7.07l-28.54,28.54l0,26.13
	c11.72-4.42,40-16.31,40-28.2c0-15,0-45,0-60c0-15-45-60-45-60s-45,45-45,60c0,15,0,45,0,60c0,11.89,28.28,23.78,40,28.2
	L80.04,133.01z"/>
</svg>
